<svg width="24" height="24" viewBox="0 0 24 24" fill="none" xmlns="http://www.w3.org/2000/svg">
<path fill-rule="evenodd" clip-rule="evenodd" d="M16.335 2C19.724 2 22 4.378 22 7.916V16.084C22 19.622 19.724 22 16.335 22H7.666C4.277 22 2 19.622 2 16.084V7.916C2 4.378 4.277 2 7.666 2H16.335ZM16.335 3.5H7.666C5.136 3.5 3.5 5.233 3.5 7.916V16.084C3.5 18.767 5.136 20.5 7.666 20.5H16.335C18.865 20.5 20.5 18.767 20.5 16.084V7.916C20.5 5.233 18.865 3.5 16.335 3.5ZM12 7.1639C12.414 7.1639 12.75 7.4999 12.75 7.9139V14.27L15.217 11.7929C15.51 11.4979 15.984 11.4999 16.277 11.7909C16.57 12.0829 16.572 12.5579 16.279 12.8519L12.531 16.6159C12.5065 16.6399 12.4812 16.6621 12.4544 16.6825L12.531 16.6159C12.4916 16.6558 12.4482 16.6908 12.4016 16.7204C12.3902 16.7265 12.3791 16.7332 12.3679 16.7395C12.3465 16.7526 12.3238 16.764 12.3006 16.7741C12.2941 16.776 12.2881 16.7785 12.2821 16.781C12.2588 16.7914 12.2346 16.7998 12.2099 16.807C12.1946 16.8105 12.1794 16.8145 12.164 16.8179C12.1452 16.823 12.1263 16.8265 12.1073 16.8292C12.092 16.8305 12.076 16.8323 12.0599 16.8335C12.0397 16.8361 12.0199 16.8369 12 16.8369L11.941 16.832L11.8983 16.829C11.8962 16.8288 11.8942 16.8285 11.8922 16.8282L12 16.8369C11.9445 16.8369 11.8895 16.8308 11.8361 16.8188C11.8206 16.8145 11.8054 16.8105 11.7904 16.8062C11.7654 16.7998 11.7412 16.7914 11.7174 16.7817C11.7119 16.7785 11.7059 16.776 11.6999 16.7734C11.6762 16.764 11.6535 16.7526 11.6314 16.7402C11.6209 16.7332 11.6098 16.7265 11.5989 16.7196C11.5801 16.7088 11.5623 16.6963 11.5451 16.6831C11.516 16.6599 11.4882 16.6352 11.4623 16.6086L7.721 12.8519C7.428 12.5579 7.43 12.0829 7.723 11.7909C8.017 11.4999 8.491 11.4979 8.783 11.7929L11.25 14.27V7.9139C11.25 7.4999 11.586 7.1639 12 7.1639Z" fill="#9CA4AB"/>
</svg>
