<svg width="18" height="18" viewBox="0 0 18 18" fill="none" xmlns="http://www.w3.org/2000/svg">
<g clip-path="url(#clip0_30020_3082)">
<path d="M14.5492 5.50489L12.4942 3.44989C12.226 3.19797 11.8746 3.05341 11.5067 3.04373C11.1389 3.03405 10.7803 3.15992 10.4992 3.39739L3.74925 10.1474C3.50682 10.3919 3.35587 10.7123 3.32175 11.0549L2.99925 14.1824C2.98914 14.2922 3.0034 14.403 3.04099 14.5067C3.07859 14.6104 3.1386 14.7045 3.21675 14.7824C3.28683 14.8519 3.36994 14.9069 3.46132 14.9442C3.55269 14.9815 3.65054 15.0005 3.74925 14.9999H3.81675L6.94425 14.7149C7.28684 14.6808 7.60727 14.5298 7.85175 14.2874L14.6017 7.53739C14.8637 7.26062 15.0053 6.89127 14.9955 6.51029C14.9856 6.12932 14.8252 5.76777 14.5492 5.50489ZM11.9992 8.00989L9.98925 5.99989L11.4517 4.49989L13.4992 6.54739L11.9992 8.00989Z" fill="#FEFEFE"/>
</g>
<defs>
<clipPath id="clip0_30020_3082">
<rect width="18" height="18" fill="white"/>
</clipPath>
</defs>
</svg>
