<svg width="18" height="18" viewBox="0 0 18 18" fill="none" xmlns="http://www.w3.org/2000/svg">
<path d="M10.2967 2.63242L11.6167 5.27242C11.7967 5.63992 12.2767 5.99242 12.6817 6.05992L15.0742 6.45742C16.6042 6.71242 16.9642 7.82242 15.8617 8.91742L14.0017 10.7774C13.6867 11.0924 13.5142 11.6999 13.6117 12.1349L14.1442 14.4374C14.5642 16.2599 13.5967 16.9649 11.9842 16.0124L9.7417 14.6849C9.3367 14.4449 8.6692 14.4449 8.2567 14.6849L6.0142 16.0124C4.4092 16.9649 3.4342 16.2524 3.8542 14.4374L4.3867 12.1349C4.4842 11.6999 4.3117 11.0924 3.9967 10.7774L2.1367 8.91742C1.0417 7.82242 1.3942 6.71242 2.9242 6.45742L5.3167 6.05992C5.7142 5.99242 6.1942 5.63992 6.3742 5.27242L7.6942 2.63242C8.4142 1.19992 9.5842 1.19992 10.2967 2.63242Z" fill="#FACC15"/>
</svg>
