<svg width="24" height="24" viewBox="0 0 24 24" fill="none" xmlns="http://www.w3.org/2000/svg">
    <path
        d="M9.05 1.99992C9.981 1.99009 10.85 2.42009 11.42 3.15009L12.3 4.32009C12.58 4.67009 13 4.88009 13.45 4.88009H16.52C20.21 4.88009 22.01 6.85009 22 10.8901V15.7601C22 19.6201 19.62 22.0001 15.75 22.0001H8.24C4.39 22.0001 2 19.6201 2 15.7501V8.24009C2 4.10009 3.84 1.99992 7.47 1.99992H9.05ZM16.63 13.7901H7.37C6.95 13.7901 6.62 14.1201 6.62 14.5401C6.62 14.9501 6.95 15.2901 7.37 15.2901H16.63C17.04 15.2901 17.37 14.9501 17.37 14.5401C17.37 14.1201 17.04 13.7901 16.63 13.7901Z"
        fill="#FFBE98" />
</svg>