<svg width="24" height="24" viewBox="0 0 24 24" fill="none" xmlns="http://www.w3.org/2000/svg">
<path fill-rule="evenodd" clip-rule="evenodd" d="M12.3747 2.00049C14.6307 2.00049 16.6447 3.43349 17.3837 5.56749C17.5197 5.95849 17.3117 6.38549 16.9197 6.52149C16.5287 6.65849 16.1017 6.44949 15.9657 6.05749C15.4367 4.52849 13.9917 3.50049 12.3717 3.50049H12.3577C10.2657 3.50049 8.5617 5.19449 8.5527 7.28449L8.552 8.62649L16.184 8.62719C18.688 8.62719 20.726 10.6652 20.726 13.1702V17.4582C20.726 19.9632 18.688 22.0012 16.184 22.0012H8.542C6.037 22.0012 4 19.9632 4 17.4582V13.1702C4 11.1868 5.277 9.49617 7.05221 8.8781L7.0527 7.30149C7.0657 4.36349 9.4417 2.00049 12.3547 2.00049H12.3747ZM16.184 10.1272H8.542C6.864 10.1272 5.5 11.4922 5.5 13.1702V17.4582C5.5 19.1362 6.864 20.5012 8.542 20.5012H16.184C17.861 20.5012 19.226 19.1362 19.226 17.4582V13.1702C19.226 11.4922 17.861 10.1272 16.184 10.1272ZM12.3633 13.453C12.7773 13.453 13.1133 13.789 13.1133 14.203V16.425C13.1133 16.839 12.7773 17.175 12.3633 17.175C11.9493 17.175 11.6133 16.839 11.6133 16.425V14.203C11.6133 13.789 11.9493 13.453 12.3633 13.453Z" fill="#111111"/>
</svg>
