<svg width="40" height="40" viewBox="0 0 40 40" fill="none" xmlns="http://www.w3.org/2000/svg">
    <rect x="0.5" y="0.5" width="39" height="39" rx="19.5" stroke="#E3E7EC" />
    <path
        d="M17.5 21.75C17.5 22.72 18.25 23.5 19.17 23.5H21.05C21.85 23.5 22.5 22.82 22.5 21.97C22.5 21.06 22.1 20.73 21.51 20.52L18.5 19.47C17.91 19.26 17.51 18.94 17.51 18.02C17.51 17.18 18.16 16.49 18.96 16.49H20.84C21.76 16.49 22.51 17.27 22.51 18.24"
        stroke="#FFBE98" stroke-width="1.5" stroke-linecap="round" stroke-linejoin="round" />
    <path d="M20 15.5V24.5" stroke="#FFBE98" stroke-width="1.5" stroke-linecap="round" stroke-linejoin="round" />
    <path d="M30 20C30 25.52 25.52 30 20 30C14.48 30 10 25.52 10 20C10 14.48 14.48 10 20 10" stroke="#FFBE98"
        stroke-width="1.5" stroke-linecap="round" stroke-linejoin="round" />
    <path d="M30 14V10H26" stroke="#FFBE98" stroke-width="1.5" stroke-linecap="round" stroke-linejoin="round" />
    <path d="M25 15L30 10" stroke="#FFBE98" stroke-width="1.5" stroke-linecap="round" stroke-linejoin="round" />
</svg>