<svg width="24" height="24" viewBox="0 0 24 24" fill="none" xmlns="http://www.w3.org/2000/svg">
<path fill-rule="evenodd" clip-rule="evenodd" d="M18.451 3.99976C20.683 3.99976 22.499 5.79776 22.499 8.00676L22.5 10.6008C22.5 10.7988 22.421 10.9908 22.28 11.1308C22.14 11.2718 21.949 11.3508 21.75 11.3508C20.963 11.3508 20.323 11.9788 20.323 12.7508C20.323 13.5228 20.963 14.1508 21.75 14.1508C22.164 14.1508 22.5 14.4868 22.5 14.9008V17.4928C22.5 19.7018 20.684 21.4998 18.452 21.4998H5.048C2.816 21.4998 1 19.7018 1 17.4928V14.9008C1 14.4868 1.336 14.1508 1.75 14.1508C2.537 14.1508 3.177 13.5228 3.177 12.7508C3.177 12.0008 2.563 11.4348 1.75 11.4348C1.551 11.4348 1.36 11.3558 1.22 11.2148C1.079 11.0748 1 10.8828 1 10.6848L1.001 8.00676C1.001 5.79776 2.817 3.99976 5.049 3.99976H18.451ZM18.451 5.49976H14.349L14.3496 7.42096C14.3496 7.83496 14.0136 8.17096 13.5996 8.17096C13.1856 8.17096 12.8496 7.83496 12.8496 7.42096L12.849 5.49976H5.049C3.644 5.49976 2.501 6.62476 2.501 8.00676L2.5 10.0248C3.767 10.3358 4.677 11.4218 4.677 12.7508C4.677 14.0928 3.751 15.2248 2.5 15.5538V17.4928C2.5 18.8748 3.643 19.9998 5.048 19.9998H12.849L12.8496 18.5113C12.8496 18.0963 13.1856 17.7613 13.5996 17.7613C14.0136 17.7613 14.3496 18.0963 14.3496 18.5113L14.349 19.9998H18.452C19.857 19.9998 21 18.8748 21 17.4928V15.5538C19.749 15.2248 18.823 14.0928 18.823 12.7508C18.823 11.4078 19.748 10.2768 21 9.94776L20.999 8.00676C20.999 6.62476 19.856 5.49976 18.451 5.49976ZM13.5996 9.50426C14.0136 9.50426 14.3496 9.84026 14.3496 10.2543V15.0753C14.3496 15.4893 14.0136 15.8253 13.5996 15.8253C13.1856 15.8253 12.8496 15.4893 12.8496 15.0753V10.2543C12.8496 9.84026 13.1856 9.50426 13.5996 9.50426Z" fill="#111111"/>
</svg>
