<svg width="24" height="25" viewBox="0 0 24 25" fill="none" xmlns="http://www.w3.org/2000/svg">
<path fill-rule="evenodd" clip-rule="evenodd" d="M12.235 5.023C13.861 3.995 16.021 3.711 17.887 4.309C21.946 5.618 23.206 10.043 22.079 13.564C20.34 19.094 12.913 23.219 12.598 23.392C12.486 23.454 12.362 23.485 12.238 23.485C12.114 23.485 11.991 23.455 11.879 23.394C11.566 23.223 4.19296 19.159 2.39596 13.565C2.39496 13.565 2.39496 13.564 2.39496 13.564C1.26696 10.042 2.52296 5.616 6.57796 4.309C8.48196 3.693 10.557 3.964 12.235 5.023ZM7.03796 5.737C3.75696 6.795 2.93296 10.324 3.82396 13.107C5.22596 17.469 10.765 20.996 12.237 21.869C13.714 20.987 19.293 17.421 20.65 13.111C21.541 10.325 20.714 6.796 17.428 5.737C15.836 5.226 13.979 5.537 12.697 6.529C12.429 6.735 12.057 6.739 11.787 6.535C10.429 5.514 8.65496 5.215 7.03796 5.737ZM16.468 7.7229C17.831 8.1639 18.786 9.3709 18.903 10.7979C18.936 11.2109 18.629 11.5729 18.216 11.6059C18.195 11.6079 18.175 11.6089 18.154 11.6089C17.767 11.6089 17.439 11.3119 17.407 10.9199C17.341 10.0979 16.791 9.4039 16.008 9.15091C15.613 9.02291 15.397 8.59991 15.524 8.2069C15.653 7.8129 16.072 7.5989 16.468 7.7229Z" fill="#111111"/>
</svg>
