<svg width="24" height="25" viewBox="0 0 24 25" fill="none" xmlns="http://www.w3.org/2000/svg">
<g id="Iconly/Light-Outline/Activity">
<g id="Activity">
<path id="Fill 1" fill-rule="evenodd" clip-rule="evenodd" d="M7.21653 16.9265C7.05653 16.9265 6.89553 16.8755 6.75953 16.7715C6.43153 16.5185 6.36953 16.0475 6.62253 15.7195L9.61553 11.8295C9.73753 11.6705 9.91853 11.5675 10.1165 11.5425C10.3185 11.5165 10.5165 11.5725 10.6735 11.6975L13.4935 13.9125L15.9605 10.7295C16.2145 10.4005 16.6845 10.3395 17.0125 10.5955C17.3405 10.8495 17.4005 11.3205 17.1465 11.6475L14.2165 15.4275C14.0945 15.5855 13.9145 15.6885 13.7165 15.7125C13.5165 15.7395 13.3185 15.6815 13.1605 15.5585L10.3425 13.3445L7.81153 16.6335C7.66353 16.8255 7.44153 16.9265 7.21653 16.9265Z" fill="#111111"/>
<g id="Group 5">
<mask id="mask0_30020_3010" style="mask-type:luminance" maskUnits="userSpaceOnUse" x="17" y="2" width="6" height="7">
<path id="Clip 4" fill-rule="evenodd" clip-rule="evenodd" d="M17.2949 2.92383H22.6389V8.26873H17.2949V2.92383Z" fill="white"/>
</mask>
<g mask="url(#mask0_30020_3010)">
<path id="Fill 3" fill-rule="evenodd" clip-rule="evenodd" d="M19.9669 4.42383C19.3209 4.42383 18.7949 4.94883 18.7949 5.59583C18.7949 6.24183 19.3209 6.76883 19.9669 6.76883C20.6129 6.76883 21.1389 6.24183 21.1389 5.59583C21.1389 4.94883 20.6129 4.42383 19.9669 4.42383ZM19.9669 8.26883C18.4939 8.26883 17.2949 7.06983 17.2949 5.59583C17.2949 4.12183 18.4939 2.92383 19.9669 2.92383C21.4409 2.92383 22.6389 4.12183 22.6389 5.59583C22.6389 7.06983 21.4409 8.26883 19.9669 8.26883Z" fill="#111111"/>
</g>
</g>
<g id="Group 8">
<mask id="mask1_30020_3010" style="mask-type:luminance" maskUnits="userSpaceOnUse" x="2" y="3" width="20" height="21">
<path id="Clip 7" fill-rule="evenodd" clip-rule="evenodd" d="M2 3.76562H21.8619V23.6266H2V3.76562Z" fill="white"/>
</mask>
<g mask="url(#mask1_30020_3010)">
<path id="Fill 6" fill-rule="evenodd" clip-rule="evenodd" d="M16.233 23.6266H7.629C4.262 23.6266 2 21.2616 2 17.7416V9.65963C2 6.13462 4.262 3.76562 7.629 3.76562H14.897C15.311 3.76562 15.647 4.10162 15.647 4.51562C15.647 4.92963 15.311 5.26562 14.897 5.26562H7.629C5.121 5.26562 3.5 6.98962 3.5 9.65963V17.7416C3.5 20.4466 5.082 22.1266 7.629 22.1266H16.233C18.741 22.1266 20.362 20.4056 20.362 17.7416V10.7026C20.362 10.2886 20.698 9.95262 21.112 9.95262C21.526 9.95262 21.862 10.2886 21.862 10.7026V17.7416C21.862 21.2616 19.6 23.6266 16.233 23.6266Z" fill="#111111"/>
</g>
</g>
</g>
</g>
</svg>
