<svg width="24" height="24" viewBox="0 0 24 24" fill="none" xmlns="http://www.w3.org/2000/svg">
<path fill-rule="evenodd" clip-rule="evenodd" d="M9.643 2C10.594 2.001 11.5 2.455 12.068 3.214L12.979 4.426C13.268 4.81 13.727 5.039 14.207 5.04H17.036C20.898 5.04 22.697 7.019 22.697 11.268L22.669 16.235C22.668 20.203 20.202 22.669 16.232 22.669H8.45C4.472 22.669 2 20.202 2 16.232V8.433C2 4.164 3.899 2 7.643 2H9.643ZM9.642 3.5H7.643C4.739 3.5 3.5 4.976 3.5 8.433V16.232C3.5 19.416 5.258 21.169 8.45 21.169H16.232C19.416 21.169 21.169 19.416 21.169 16.232V16.229L21.197 11.264C21.197 7.865 20.031 6.54 17.036 6.54H14.206C13.257 6.539 12.351 6.086 11.781 5.328L10.868 4.114C10.581 3.729 10.122 3.501 9.642 3.5ZM16.7162 14.2128C17.1302 14.2128 17.4662 14.5488 17.4662 14.9628C17.4662 15.3768 17.1302 15.7128 16.7162 15.7128H7.9812C7.5672 15.7128 7.2312 15.3768 7.2312 14.9628C7.2312 14.5488 7.5672 14.2128 7.9812 14.2128H16.7162Z" fill="#9CA4AB"/>
</svg>
